# xmcd
#
# Track frame offsets: 
#        150
#        20331
#        34225
#        51390
#        69724
#        100049
#        112847
#        131152
#        144466
#        166512
#        181143
#        213264
#        229439
#        245959
#        266767
#        279915
#        291989
#        311850
#
# Disc length: 4352 seconds
#
# Revision: 3
# Processed by: cddbd v1.4PL0 Copyright (c) Steve Scherf et al.
# Submitted via: ExactAudioCopy v0.90b4
#
DISCID=1110fe12
DTITLE=Raymond van 't groenewoud - - Meisjes - Het Beste Van Raymond V
DTITLE=an 't Groenewoud
DYEAR=1900
DGENRE=
TTITLE0=Raymond van het groenewoud - meisjes
TTITLE1=Raymond van het groenewoud - vlaanderen boven
TTITLE2=Raymond van het groenewoud - zjoske schone meid
TTITLE3=Raymond van het groenewoud - maria, maria, ik hou van jou
TTITLE4=Raymond van het groenewoud - wat een fijne dag
TTITLE5=Raymond van het groenewoud - zij houdt van vrijen
TTITLE6=Raymond van het groenewoud - bleke lena
TTITLE7=Raymond van het groenewoud - gelukkig zijn
TTITLE8=Raymond van het groenewoud - brussels by night
TTITLE9=Raymond van het groenewoud - stapelgek op jou
TTITLE10=Raymond van het groenewoud - bierfeesten
TTITLE11=Raymond van het groenewoud - liefde voor muziek
TTITLE12=Raymond van het groenewoud - intimiteit
TTITLE13=Raymond van het groenewoud - je veux d' l'amour
TTITLE14=Raymond van het groenewoud - cha cha cha
TTITLE15=Raymond van het groenewoud - het verschil met mijn vriend jan
TTITLE16=Raymond van het groenewoud - danielle
TTITLE17=Raymond van het groenewoud - ik ben de man
EXTD=
EXTT0=
EXTT1=
EXTT2=
EXTT3=
EXTT4=
EXTT5=
EXTT6=
EXTT7=
EXTT8=
EXTT9=
EXTT10=
EXTT11=
EXTT12=
EXTT13=
EXTT14=
EXTT15=
EXTT16=
EXTT17=
PLAYORDER=
